<mxfile host="app.diagrams.net" modified="2023-12-22T03:22:25.274Z" agent="Mozilla/5.0 (Macintosh; Intel Mac OS X 10_15_7) AppleWebKit/537.36 (KHTML, like Gecko) Chrome/119.0.0.0 Safari/537.36" etag="FC4BDf7m8xfthb10slSx" version="22.1.11" type="github">
  <diagram name="Page-1" id="UImN8F6RggUFPWrpkJpI">
    <mxGraphModel dx="1306" dy="765" grid="1" gridSize="10" guides="1" tooltips="1" connect="1" arrows="1" fold="1" page="1" pageScale="1" pageWidth="850" pageHeight="1100" math="0" shadow="0">
      <root>
        <mxCell id="0" />
        <mxCell id="1" parent="0" />
        <mxCell id="ukT0D_zXUrws_9689R1D-16" value="" style="rounded=0;whiteSpace=wrap;html=1;shadow=0;fillColor=#dae8fc;strokeColor=#6c8ebf;" vertex="1" parent="1">
          <mxGeometry x="50" y="30" width="110" height="420" as="geometry" />
        </mxCell>
        <mxCell id="ukT0D_zXUrws_9689R1D-1" value="GPIO" style="rounded=1;whiteSpace=wrap;html=1;fillColor=#fff2cc;strokeColor=#d6b656;" vertex="1" parent="1">
          <mxGeometry x="60" y="40" width="90" height="40" as="geometry" />
        </mxCell>
        <mxCell id="ukT0D_zXUrws_9689R1D-2" value="PIO" style="rounded=1;whiteSpace=wrap;html=1;fillColor=#fff2cc;strokeColor=#d6b656;" vertex="1" parent="1">
          <mxGeometry x="60" y="100" width="90" height="40" as="geometry" />
        </mxCell>
        <mxCell id="ukT0D_zXUrws_9689R1D-3" value="GPCLK" style="rounded=1;whiteSpace=wrap;html=1;fillColor=#fff2cc;strokeColor=#d6b656;" vertex="1" parent="1">
          <mxGeometry x="60" y="400" width="90" height="40" as="geometry" />
        </mxCell>
        <mxCell id="ukT0D_zXUrws_9689R1D-4" value="PWM" style="rounded=1;whiteSpace=wrap;html=1;fillColor=#fff2cc;strokeColor=#d6b656;" vertex="1" parent="1">
          <mxGeometry x="60" y="340" width="90" height="40" as="geometry" />
        </mxCell>
        <mxCell id="ukT0D_zXUrws_9689R1D-5" value="SPI" style="rounded=1;whiteSpace=wrap;html=1;fillColor=#fff2cc;strokeColor=#d6b656;" vertex="1" parent="1">
          <mxGeometry x="60" y="160" width="90" height="40" as="geometry" />
        </mxCell>
        <mxCell id="ukT0D_zXUrws_9689R1D-6" value="UART" style="rounded=1;whiteSpace=wrap;html=1;fillColor=#fff2cc;strokeColor=#d6b656;" vertex="1" parent="1">
          <mxGeometry x="60" y="220" width="90" height="40" as="geometry" />
        </mxCell>
        <mxCell id="ukT0D_zXUrws_9689R1D-7" value="I2C" style="rounded=1;whiteSpace=wrap;html=1;fillColor=#fff2cc;strokeColor=#d6b656;" vertex="1" parent="1">
          <mxGeometry x="60" y="280" width="90" height="40" as="geometry" />
        </mxCell>
        <mxCell id="ukT0D_zXUrws_9689R1D-8" value="Muxing" style="verticalLabelPosition=middle;verticalAlign=middle;html=1;shape=trapezoid;perimeter=trapezoidPerimeter;whiteSpace=wrap;size=0.23;arcSize=10;flipV=1;labelPosition=center;align=center;rotation=270;flipH=0;fillColor=#e1d5e7;strokeColor=#9673a6;" vertex="1" parent="1">
          <mxGeometry x="40" y="210" width="407.5" height="60" as="geometry" />
        </mxCell>
        <mxCell id="ukT0D_zXUrws_9689R1D-21" style="edgeStyle=orthogonalEdgeStyle;rounded=0;orthogonalLoop=1;jettySize=auto;html=1;exitX=1;exitY=0.5;exitDx=0;exitDy=0;" edge="1" parent="1" source="ukT0D_zXUrws_9689R1D-10">
          <mxGeometry relative="1" as="geometry">
            <mxPoint x="520" y="240" as="targetPoint" />
          </mxGeometry>
        </mxCell>
        <mxCell id="ukT0D_zXUrws_9689R1D-23" value="Output Enable" style="edgeLabel;html=1;align=center;verticalAlign=middle;resizable=0;points=[];" vertex="1" connectable="0" parent="ukT0D_zXUrws_9689R1D-21">
          <mxGeometry x="0.3076" y="3" relative="1" as="geometry">
            <mxPoint y="-9" as="offset" />
          </mxGeometry>
        </mxCell>
        <mxCell id="ukT0D_zXUrws_9689R1D-26" style="edgeStyle=orthogonalEdgeStyle;rounded=0;orthogonalLoop=1;jettySize=auto;html=1;exitX=0;exitY=0.5;exitDx=0;exitDy=0;endArrow=none;endFill=0;" edge="1" parent="1" source="ukT0D_zXUrws_9689R1D-10" target="ukT0D_zXUrws_9689R1D-8">
          <mxGeometry relative="1" as="geometry" />
        </mxCell>
        <mxCell id="ukT0D_zXUrws_9689R1D-10" value="Inversion/Override&lt;br&gt;Logic" style="rounded=0;whiteSpace=wrap;html=1;fillColor=#e1d5e7;strokeColor=#9673a6;" vertex="1" parent="1">
          <mxGeometry x="350" y="212.5" width="110" height="55" as="geometry" />
        </mxCell>
        <mxCell id="ukT0D_zXUrws_9689R1D-11" value="IO PAD" style="rounded=0;whiteSpace=wrap;html=1;fillColor=#e1d5e7;strokeColor=#9673a6;" vertex="1" parent="1">
          <mxGeometry x="570" y="105" width="120" height="270" as="geometry" />
        </mxCell>
        <mxCell id="ukT0D_zXUrws_9689R1D-13" value="Inversion/Override&lt;br&gt;Logic" style="rounded=0;whiteSpace=wrap;html=1;fillColor=#e1d5e7;strokeColor=#9673a6;" vertex="1" parent="1">
          <mxGeometry x="350" y="292.5" width="110" height="55" as="geometry" />
        </mxCell>
        <mxCell id="ukT0D_zXUrws_9689R1D-28" style="edgeStyle=orthogonalEdgeStyle;rounded=0;orthogonalLoop=1;jettySize=auto;html=1;exitX=1;exitY=0.5;exitDx=0;exitDy=0;endArrow=none;endFill=0;startArrow=classic;startFill=1;" edge="1" parent="1" source="ukT0D_zXUrws_9689R1D-14">
          <mxGeometry relative="1" as="geometry">
            <mxPoint x="500" y="320" as="targetPoint" />
          </mxGeometry>
        </mxCell>
        <mxCell id="ukT0D_zXUrws_9689R1D-30" style="edgeStyle=orthogonalEdgeStyle;rounded=0;orthogonalLoop=1;jettySize=auto;html=1;exitX=0;exitY=0.5;exitDx=0;exitDy=0;entryX=1;entryY=0.5;entryDx=0;entryDy=0;" edge="1" parent="1" source="ukT0D_zXUrws_9689R1D-14" target="ukT0D_zXUrws_9689R1D-15">
          <mxGeometry relative="1" as="geometry" />
        </mxCell>
        <mxCell id="ukT0D_zXUrws_9689R1D-14" value="Inversion/Override&lt;br&gt;Logic" style="rounded=0;whiteSpace=wrap;html=1;fillColor=#e1d5e7;strokeColor=#9673a6;" vertex="1" parent="1">
          <mxGeometry x="350" y="462" width="110" height="55" as="geometry" />
        </mxCell>
        <mxCell id="ukT0D_zXUrws_9689R1D-15" value="IRQ" style="rounded=0;whiteSpace=wrap;html=1;fillColor=#dae8fc;strokeColor=#6c8ebf;" vertex="1" parent="1">
          <mxGeometry x="50" y="460" width="110" height="60" as="geometry" />
        </mxCell>
        <mxCell id="ukT0D_zXUrws_9689R1D-20" style="edgeStyle=orthogonalEdgeStyle;rounded=0;orthogonalLoop=1;jettySize=auto;html=1;exitX=1;exitY=0.5;exitDx=0;exitDy=0;" edge="1" parent="1" source="ukT0D_zXUrws_9689R1D-19">
          <mxGeometry relative="1" as="geometry">
            <mxPoint x="520" y="160" as="targetPoint" />
          </mxGeometry>
        </mxCell>
        <mxCell id="ukT0D_zXUrws_9689R1D-24" value="Output Value" style="edgeLabel;html=1;align=center;verticalAlign=middle;resizable=0;points=[];" vertex="1" connectable="0" parent="ukT0D_zXUrws_9689R1D-20">
          <mxGeometry x="0.1423" y="3" relative="1" as="geometry">
            <mxPoint y="-11" as="offset" />
          </mxGeometry>
        </mxCell>
        <mxCell id="ukT0D_zXUrws_9689R1D-19" value="Inversion/Override&lt;br&gt;Logic" style="rounded=0;whiteSpace=wrap;html=1;fillColor=#e1d5e7;strokeColor=#9673a6;" vertex="1" parent="1">
          <mxGeometry x="350" y="132.5" width="110" height="55" as="geometry" />
        </mxCell>
        <mxCell id="ukT0D_zXUrws_9689R1D-22" style="edgeStyle=orthogonalEdgeStyle;rounded=0;orthogonalLoop=1;jettySize=auto;html=1;entryX=1;entryY=0.5;entryDx=0;entryDy=0;" edge="1" parent="1" target="ukT0D_zXUrws_9689R1D-13">
          <mxGeometry relative="1" as="geometry">
            <mxPoint x="530" y="250" as="targetPoint" />
            <mxPoint x="520" y="320" as="sourcePoint" />
          </mxGeometry>
        </mxCell>
        <mxCell id="ukT0D_zXUrws_9689R1D-29" value="Input" style="edgeLabel;html=1;align=center;verticalAlign=middle;resizable=0;points=[];" vertex="1" connectable="0" parent="ukT0D_zXUrws_9689R1D-22">
          <mxGeometry x="-0.6689" y="1" relative="1" as="geometry">
            <mxPoint y="-11" as="offset" />
          </mxGeometry>
        </mxCell>
        <mxCell id="ukT0D_zXUrws_9689R1D-25" style="edgeStyle=orthogonalEdgeStyle;rounded=0;orthogonalLoop=1;jettySize=auto;html=1;entryX=0.696;entryY=0.013;entryDx=0;entryDy=0;entryPerimeter=0;endArrow=none;endFill=0;" edge="1" parent="1" source="ukT0D_zXUrws_9689R1D-19" target="ukT0D_zXUrws_9689R1D-8">
          <mxGeometry relative="1" as="geometry" />
        </mxCell>
        <mxCell id="ukT0D_zXUrws_9689R1D-27" style="edgeStyle=orthogonalEdgeStyle;rounded=0;orthogonalLoop=1;jettySize=auto;html=1;exitX=0;exitY=0.5;exitDx=0;exitDy=0;entryX=0.306;entryY=-0.004;entryDx=0;entryDy=0;entryPerimeter=0;endArrow=none;endFill=0;" edge="1" parent="1" source="ukT0D_zXUrws_9689R1D-13" target="ukT0D_zXUrws_9689R1D-8">
          <mxGeometry relative="1" as="geometry" />
        </mxCell>
      </root>
    </mxGraphModel>
  </diagram>
</mxfile>
